<svg xmlns="http://www.w3.org/2000/svg" xmlns:xlink="http://www.w3.org/1999/xlink" width="209.3333" zoomAndPan="magnify" viewBox="108.9375 10.125 157 342.125" height="456.1667" preserveAspectRatio="xMidYMid meet" version="1.0"><defs><g></g><clipPath id="c122b88b98"><rect x="0" width="202" y="0" height="367"></rect></clipPath></defs><g transform="matrix(1, 0, 0, 1, 103, 8)"><g clip-path="url(#c122b88b98)"><g fill="#000000" fill-opacity="1"><g transform="translate(0.755012, 162.797577)"><g><path d="M 6.625 0 L 6.1875 -160.625 L 83.515625 -102.078125 L 160.84375 -160.625 L 161.28125 0 Z M 6.625 0 "></path></g></g></g><g fill="#000000" fill-opacity="1"><g transform="translate(4.850399, 344.005802)"><g><path d="M 39.546875 -154.65625 L 155.546875 -154.65625 L 155.546875 -76.890625 L 128.578125 -76.890625 L 128.578125 -75.34375 C 135.941406 -73.71875 141.90625 -70.734375 146.46875 -66.390625 C 151.039062 -62.046875 154.25 -57.035156 156.09375 -51.359375 C 157.9375 -45.691406 158.488281 -39.835938 157.75 -33.796875 C 157.007812 -27.765625 155.09375 -22.171875 152 -17.015625 C 148.90625 -11.859375 144.707031 -7.695312 139.40625 -4.53125 C 134.101562 -1.363281 127.695312 0.21875 120.1875 0.21875 L 5.078125 0.21875 L 5.078125 -76.890625 L 36.234375 -76.890625 L 36.234375 -78.4375 C 25.484375 -80.5 16.941406 -84.804688 10.609375 -91.359375 C 4.273438 -97.910156 1.109375 -106.195312 1.109375 -116.21875 C 1.109375 -122.84375 2.835938 -129.097656 6.296875 -134.984375 C 9.753906 -140.878906 14.390625 -145.628906 20.203125 -149.234375 C 26.023438 -152.847656 32.472656 -154.65625 39.546875 -154.65625 Z M 39.546875 -154.65625 "></path></g></g></g></g></g></svg>