<svg xmlns="http://www.w3.org/2000/svg" xmlns:xlink="http://www.w3.org/1999/xlink" width="235.25" zoomAndPan="magnify" viewBox="3.3125 60.3125 176.4375 59.6875" height="79.5833" preserveAspectRatio="xMidYMid meet" version="1.0"><defs><g></g><clipPath id="15241419f1"><path d="M 1 0.078125 L 28 0.078125 L 28 28 L 1 28 Z M 1 0.078125 " clip-rule="nonzero"></path></clipPath><clipPath id="be8a30f11a"><rect x="0" width="34" y="0" height="67"></rect></clipPath><clipPath id="5fe84164ac"><rect x="0" width="141" y="0" height="41"></rect></clipPath><clipPath id="6713af48da"><path d="M 0.195312 16 L 11 16 L 11 36 L 0.195312 36 Z M 0.195312 16 " clip-rule="nonzero"></path></clipPath><clipPath id="7861406a0c"><rect x="0" width="141" y="0" height="41"></rect></clipPath></defs><g transform="matrix(1, 0, 0, 1, 2, 60)"><g clip-path="url(#be8a30f11a)"><g clip-path="url(#15241419f1)"><g fill="#ffffff" fill-opacity="1"><g transform="translate(0.495668, 27.050751)"><g><path d="M 1.09375 0 L 1.03125 -26.6875 L 13.875 -16.953125 L 26.71875 -26.6875 L 26.796875 0 Z M 1.09375 0 "></path></g></g></g></g><g fill="#ffffff" fill-opacity="1"><g transform="translate(1.175931, 57.150315)"><g><path d="M 6.5625 -25.6875 L 25.84375 -25.6875 L 25.84375 -12.765625 L 21.359375 -12.765625 L 21.359375 -12.515625 C 22.585938 -12.242188 23.578125 -11.75 24.328125 -11.03125 C 25.085938 -10.3125 25.617188 -9.476562 25.921875 -8.53125 C 26.234375 -7.59375 26.328125 -6.617188 26.203125 -5.609375 C 26.078125 -4.609375 25.757812 -3.679688 25.25 -2.828125 C 24.738281 -1.972656 24.039062 -1.28125 23.15625 -0.75 C 22.28125 -0.226562 21.21875 0.03125 19.96875 0.03125 L 0.84375 0.03125 L 0.84375 -12.765625 L 6.015625 -12.765625 L 6.015625 -13.03125 C 4.234375 -13.375 2.816406 -14.085938 1.765625 -15.171875 C 0.710938 -16.265625 0.1875 -17.644531 0.1875 -19.3125 C 0.1875 -20.40625 0.472656 -21.441406 1.046875 -22.421875 C 1.617188 -23.398438 2.390625 -24.1875 3.359375 -24.78125 C 4.328125 -25.382812 5.394531 -25.6875 6.5625 -25.6875 Z M 6.5625 -25.6875 "></path></g></g></g></g></g><g transform="matrix(1, 0, 0, 1, 46, 54)"><g clip-path="url(#5fe84164ac)"><g fill="#ffffff" fill-opacity="1"><g transform="translate(0.339342, 31.891398)"><g><path d="M 4.265625 0.21875 C 3.671875 0.21875 3.132812 0.046875 2.65625 -0.296875 C 2.175781 -0.640625 1.800781 -1.085938 1.53125 -1.640625 C 1.269531 -2.203125 1.140625 -2.789062 1.140625 -3.40625 C 1.140625 -4.625 1.398438 -5.613281 1.921875 -6.375 C 2.441406 -7.144531 3.101562 -7.753906 3.90625 -8.203125 C 4.71875 -8.648438 5.84375 -9.160156 7.28125 -9.734375 L 7.28125 -10.84375 C 7.28125 -11.875 7.175781 -12.597656 6.96875 -13.015625 C 6.769531 -13.441406 6.351562 -13.65625 5.71875 -13.65625 C 4.625 -13.65625 4.078125 -12.914062 4.078125 -11.4375 L 4.078125 -10.65625 L 1.21875 -10.765625 C 1.25 -12.492188 1.640625 -13.765625 2.390625 -14.578125 C 3.148438 -15.398438 4.320312 -15.8125 5.90625 -15.8125 C 7.40625 -15.8125 8.488281 -15.398438 9.15625 -14.578125 C 9.832031 -13.765625 10.171875 -12.53125 10.171875 -10.875 L 10.171875 -3.75 C 10.171875 -2.582031 10.257812 -1.332031 10.4375 0 L 7.796875 0 C 7.597656 -1.019531 7.472656 -1.785156 7.421875 -2.296875 C 7.203125 -1.585938 6.828125 -0.988281 6.296875 -0.5 C 5.765625 -0.0195312 5.085938 0.21875 4.265625 0.21875 Z M 5.390625 -2.265625 C 5.773438 -2.265625 6.144531 -2.410156 6.5 -2.703125 C 6.863281 -3.003906 7.125 -3.289062 7.28125 -3.5625 L 7.28125 -7.984375 C 6.507812 -7.554688 5.910156 -7.179688 5.484375 -6.859375 C 5.066406 -6.546875 4.71875 -6.179688 4.4375 -5.765625 C 4.15625 -5.359375 4.015625 -4.867188 4.015625 -4.296875 C 4.015625 -3.640625 4.128906 -3.132812 4.359375 -2.78125 C 4.597656 -2.4375 4.941406 -2.265625 5.390625 -2.265625 Z M 5.390625 -2.265625 "></path></g></g></g><g fill="#ffffff" fill-opacity="1"><g transform="translate(24.899773, 31.891398)"><g><path d="M 1.640625 -20.9375 L 4.53125 -20.9375 L 4.53125 -17.921875 L 1.640625 -17.921875 Z M 1.640625 -15.59375 L 4.53125 -15.59375 L 4.53125 0 L 1.640625 0 Z M 1.640625 -15.59375 "></path></g></g></g><g fill="#ffffff" fill-opacity="1"><g transform="translate(44.144025, 31.891398)"><g><path d="M 7.046875 0.21875 C 6.109375 0.21875 5.226562 -0.234375 4.40625 -1.140625 L 4.40625 0 L 1.515625 0 L 1.515625 -21.859375 L 4.40625 -21.859375 L 4.40625 -14.359375 C 5.25 -15.328125 6.226562 -15.8125 7.34375 -15.8125 C 8.757812 -15.8125 9.707031 -15.203125 10.1875 -13.984375 C 10.664062 -12.773438 10.90625 -11.429688 10.90625 -9.953125 L 10.90625 -6.171875 C 10.90625 -1.910156 9.617188 0.21875 7.046875 0.21875 Z M 6.453125 -2.046875 C 7.117188 -2.046875 7.546875 -2.382812 7.734375 -3.0625 C 7.921875 -3.738281 8.015625 -4.773438 8.015625 -6.171875 L 8.015625 -9.953125 C 8.015625 -11.109375 7.90625 -11.992188 7.6875 -12.609375 C 7.46875 -13.234375 7.019531 -13.546875 6.34375 -13.546875 C 5.707031 -13.546875 5.0625 -13.285156 4.40625 -12.765625 L 4.40625 -2.75 C 4.988281 -2.28125 5.671875 -2.046875 6.453125 -2.046875 Z M 6.453125 -2.046875 "></path></g></g></g><g fill="#ffffff" fill-opacity="1"><g transform="translate(69.271169, 31.891398)"><g><path d="M 4.265625 0.21875 C 3.671875 0.21875 3.132812 0.046875 2.65625 -0.296875 C 2.175781 -0.640625 1.800781 -1.085938 1.53125 -1.640625 C 1.269531 -2.203125 1.140625 -2.789062 1.140625 -3.40625 C 1.140625 -4.625 1.398438 -5.613281 1.921875 -6.375 C 2.441406 -7.144531 3.101562 -7.753906 3.90625 -8.203125 C 4.71875 -8.648438 5.84375 -9.160156 7.28125 -9.734375 L 7.28125 -10.84375 C 7.28125 -11.875 7.175781 -12.597656 6.96875 -13.015625 C 6.769531 -13.441406 6.351562 -13.65625 5.71875 -13.65625 C 4.625 -13.65625 4.078125 -12.914062 4.078125 -11.4375 L 4.078125 -10.65625 L 1.21875 -10.765625 C 1.25 -12.492188 1.640625 -13.765625 2.390625 -14.578125 C 3.148438 -15.398438 4.320312 -15.8125 5.90625 -15.8125 C 7.40625 -15.8125 8.488281 -15.398438 9.15625 -14.578125 C 9.832031 -13.765625 10.171875 -12.53125 10.171875 -10.875 L 10.171875 -3.75 C 10.171875 -2.582031 10.257812 -1.332031 10.4375 0 L 7.796875 0 C 7.597656 -1.019531 7.472656 -1.785156 7.421875 -2.296875 C 7.203125 -1.585938 6.828125 -0.988281 6.296875 -0.5 C 5.765625 -0.0195312 5.085938 0.21875 4.265625 0.21875 Z M 5.390625 -2.265625 C 5.773438 -2.265625 6.144531 -2.410156 6.5 -2.703125 C 6.863281 -3.003906 7.125 -3.289062 7.28125 -3.5625 L 7.28125 -7.984375 C 6.507812 -7.554688 5.910156 -7.179688 5.484375 -6.859375 C 5.066406 -6.546875 4.71875 -6.179688 4.4375 -5.765625 C 4.15625 -5.359375 4.015625 -4.867188 4.015625 -4.296875 C 4.015625 -3.640625 4.128906 -3.132812 4.359375 -2.78125 C 4.597656 -2.4375 4.941406 -2.265625 5.390625 -2.265625 Z M 5.390625 -2.265625 "></path></g></g></g><g fill="#ffffff" fill-opacity="1"><g transform="translate(93.8316, 31.891398)"><g><path d="M 5.71875 0.21875 C 4.5 0.21875 3.554688 -0.0234375 2.890625 -0.515625 C 2.222656 -1.015625 1.765625 -1.707031 1.515625 -2.59375 C 1.273438 -3.488281 1.15625 -4.617188 1.15625 -5.984375 L 1.15625 -9.578125 C 1.15625 -10.984375 1.273438 -12.132812 1.515625 -13.03125 C 1.765625 -13.925781 2.222656 -14.613281 2.890625 -15.09375 C 3.554688 -15.570312 4.5 -15.8125 5.71875 -15.8125 C 6.832031 -15.8125 7.695312 -15.628906 8.3125 -15.265625 C 8.9375 -14.910156 9.367188 -14.378906 9.609375 -13.671875 C 9.859375 -12.960938 9.984375 -12.039062 9.984375 -10.90625 L 9.984375 -9.984375 L 7.359375 -9.984375 L 7.359375 -10.921875 C 7.359375 -11.953125 7.242188 -12.671875 7.015625 -13.078125 C 6.796875 -13.484375 6.375 -13.6875 5.75 -13.6875 C 5.257812 -13.6875 4.894531 -13.578125 4.65625 -13.359375 C 4.425781 -13.140625 4.265625 -12.785156 4.171875 -12.296875 C 4.085938 -11.816406 4.046875 -11.109375 4.046875 -10.171875 L 4.046875 -5.265625 C 4.046875 -4.359375 4.097656 -3.664062 4.203125 -3.1875 C 4.316406 -2.71875 4.492188 -2.390625 4.734375 -2.203125 C 4.972656 -2.015625 5.320312 -1.921875 5.78125 -1.921875 C 6.4375 -1.921875 6.863281 -2.140625 7.0625 -2.578125 C 7.257812 -3.015625 7.359375 -3.691406 7.359375 -4.609375 L 7.359375 -5.875 L 9.984375 -5.875 L 9.984375 -4.796875 C 9.984375 -3.109375 9.671875 -1.847656 9.046875 -1.015625 C 8.429688 -0.191406 7.320312 0.21875 5.71875 0.21875 Z M 5.71875 0.21875 "></path></g></g></g><g fill="#ffffff" fill-opacity="1"><g transform="translate(117.987247, 31.891398)"><g><path d="M 1.53125 -21.859375 L 4.421875 -21.859375 L 4.421875 -13.984375 C 5.722656 -15.203125 7.03125 -15.8125 8.34375 -15.8125 C 9.1875 -15.8125 9.78125 -15.503906 10.125 -14.890625 C 10.476562 -14.285156 10.65625 -13.53125 10.65625 -12.625 L 10.65625 0 L 7.765625 0 L 7.765625 -11.796875 C 7.765625 -12.390625 7.675781 -12.828125 7.5 -13.109375 C 7.320312 -13.398438 7 -13.546875 6.53125 -13.546875 C 5.894531 -13.546875 5.191406 -13.203125 4.421875 -12.515625 L 4.421875 0 L 1.53125 0 Z M 1.53125 -21.859375 "></path></g></g></g></g></g><path stroke-linecap="butt" transform="matrix(0, -0.748005, 0.748005, 0, 35.557577, 117.384529)" fill="none" stroke-linejoin="miter" d="M 0.00229539 0.998804 L 75.99608 0.998804 " stroke="#ffffff" stroke-width="2" stroke-opacity="1" stroke-miterlimit="4"></path><g transform="matrix(1, 0, 0, 1, 46, 84)"><g clip-path="url(#7861406a0c)"><g clip-path="url(#6713af48da)"><g fill="#ffffff" fill-opacity="1"><g transform="translate(0.339342, 32.079823)"><g><path d="M 1.21875 1.703125 C 2.289062 1.703125 3.03125 1.617188 3.4375 1.453125 C 3.84375 1.296875 4.046875 0.992188 4.046875 0.546875 C 4.046875 0.328125 3.847656 -0.628906 3.453125 -2.328125 L 0.328125 -15.59375 L 3.234375 -15.59375 L 5.34375 -3.9375 L 7.359375 -15.59375 L 10.28125 -15.59375 L 6.5625 0.859375 C 6.300781 1.960938 5.765625 2.742188 4.953125 3.203125 C 4.148438 3.671875 3.019531 3.90625 1.5625 3.90625 L 1.21875 3.90625 Z M 1.21875 1.703125 "></path></g></g></g></g><g fill="#ffffff" fill-opacity="1"><g transform="translate(23.982269, 32.079823)"><g><path d="M 5.078125 0.21875 C 3.816406 0.21875 2.796875 -0.175781 2.015625 -0.96875 C 1.234375 -1.757812 0.785156 -2.820312 0.671875 -4.15625 L 3.078125 -4.890625 C 3.222656 -3.878906 3.46875 -3.128906 3.8125 -2.640625 C 4.164062 -2.160156 4.664062 -1.921875 5.3125 -1.921875 C 5.820312 -1.921875 6.210938 -2.066406 6.484375 -2.359375 C 6.765625 -2.660156 6.90625 -3.0625 6.90625 -3.5625 C 6.90625 -4.007812 6.804688 -4.410156 6.609375 -4.765625 C 6.410156 -5.128906 6.085938 -5.5 5.640625 -5.875 L 2.96875 -8.171875 C 2.351562 -8.691406 1.878906 -9.242188 1.546875 -9.828125 C 1.210938 -10.421875 1.046875 -11.140625 1.046875 -11.984375 C 1.046875 -13.179688 1.40625 -14.117188 2.125 -14.796875 C 2.851562 -15.472656 3.835938 -15.8125 5.078125 -15.8125 C 6.265625 -15.8125 7.191406 -15.425781 7.859375 -14.65625 C 8.535156 -13.894531 8.929688 -12.914062 9.046875 -11.71875 L 7.09375 -10.984375 C 6.96875 -11.867188 6.757812 -12.539062 6.46875 -13 C 6.1875 -13.457031 5.757812 -13.6875 5.1875 -13.6875 C 4.71875 -13.6875 4.34375 -13.53125 4.0625 -13.21875 C 3.78125 -12.914062 3.640625 -12.539062 3.640625 -12.09375 C 3.640625 -11.507812 3.898438 -10.988281 4.421875 -10.53125 L 7.171875 -7.984375 C 7.878906 -7.335938 8.425781 -6.695312 8.8125 -6.0625 C 9.195312 -5.4375 9.390625 -4.675781 9.390625 -3.78125 C 9.390625 -2.476562 9 -1.484375 8.21875 -0.796875 C 7.445312 -0.117188 6.398438 0.21875 5.078125 0.21875 Z M 5.078125 0.21875 "></path></g></g></g><g fill="#ffffff" fill-opacity="1"><g transform="translate(47.139455, 32.079823)"><g><path d="M 5.609375 0.21875 C 3.359375 0.21875 2.234375 -1.023438 2.234375 -3.515625 L 2.234375 -13.6875 L 0.59375 -13.6875 L 0.59375 -15.59375 L 2.234375 -15.59375 L 2.234375 -20.15625 L 5.125 -20.15625 L 5.125 -15.59375 L 7.640625 -15.59375 L 7.640625 -13.6875 L 5.125 -13.6875 L 5.125 -3.703125 C 5.125 -3.066406 5.222656 -2.625 5.421875 -2.375 C 5.617188 -2.125 6 -2 6.5625 -2 C 6.914062 -2 7.265625 -2.023438 7.609375 -2.078125 L 7.609375 0.046875 C 6.890625 0.160156 6.222656 0.21875 5.609375 0.21875 Z M 5.609375 0.21875 "></path></g></g></g><g fill="#ffffff" fill-opacity="1"><g transform="translate(68.515578, 32.079823)"><g><path d="M 5.78125 0.21875 C 4.570312 0.21875 3.632812 -0.0078125 2.96875 -0.46875 C 2.300781 -0.925781 1.832031 -1.601562 1.5625 -2.5 C 1.289062 -3.40625 1.15625 -4.578125 1.15625 -6.015625 L 1.15625 -9.578125 C 1.15625 -11.734375 1.492188 -13.3125 2.171875 -14.3125 C 2.847656 -15.3125 4.050781 -15.8125 5.78125 -15.8125 C 7.03125 -15.8125 7.972656 -15.550781 8.609375 -15.03125 C 9.253906 -14.507812 9.679688 -13.773438 9.890625 -12.828125 C 10.097656 -11.890625 10.203125 -10.617188 10.203125 -9.015625 L 10.203125 -7.75 L 4.046875 -7.75 L 4.046875 -4.609375 C 4.046875 -3.660156 4.1875 -2.972656 4.46875 -2.546875 C 4.75 -2.128906 5.191406 -1.921875 5.796875 -1.921875 C 6.410156 -1.921875 6.820312 -2.128906 7.03125 -2.546875 C 7.25 -2.972656 7.359375 -3.617188 7.359375 -4.484375 L 7.359375 -5.421875 L 10.171875 -5.421875 L 10.171875 -4.828125 C 10.171875 -3.191406 9.816406 -1.941406 9.109375 -1.078125 C 8.410156 -0.210938 7.300781 0.21875 5.78125 0.21875 Z M 7.359375 -9.3125 L 7.359375 -10.71875 C 7.359375 -11.78125 7.253906 -12.539062 7.046875 -13 C 6.847656 -13.457031 6.414062 -13.6875 5.75 -13.6875 C 5.28125 -13.6875 4.921875 -13.578125 4.671875 -13.359375 C 4.429688 -13.140625 4.265625 -12.78125 4.171875 -12.28125 C 4.085938 -11.789062 4.046875 -11.078125 4.046875 -10.140625 L 4.046875 -9.3125 Z M 7.359375 -9.3125 "></path></g></g></g><g fill="#ffffff" fill-opacity="1"><g transform="translate(92.941091, 32.079823)"><g><path d="M 1.453125 -15.59375 L 4.125 -15.59375 L 4.125 -14.109375 C 4.644531 -14.679688 5.210938 -15.113281 5.828125 -15.40625 C 6.453125 -15.707031 7.109375 -15.859375 7.796875 -15.859375 C 9.128906 -15.859375 9.972656 -15.203125 10.328125 -13.890625 C 11.410156 -15.203125 12.707031 -15.859375 14.21875 -15.859375 C 15.03125 -15.859375 15.691406 -15.5625 16.203125 -14.96875 C 16.710938 -14.375 16.96875 -13.46875 16.96875 -12.25 L 16.96875 0 L 14.328125 0 L 14.328125 -12.0625 C 14.328125 -12.78125 14.207031 -13.28125 13.96875 -13.5625 C 13.738281 -13.84375 13.410156 -13.984375 12.984375 -13.984375 C 12.585938 -13.984375 12.171875 -13.867188 11.734375 -13.640625 C 11.304688 -13.410156 10.910156 -13.097656 10.546875 -12.703125 L 10.546875 0 L 7.90625 0 L 7.90625 -12.0625 C 7.90625 -12.78125 7.785156 -13.28125 7.546875 -13.5625 C 7.316406 -13.84375 6.988281 -13.984375 6.5625 -13.984375 C 6.175781 -13.984375 5.765625 -13.867188 5.328125 -13.640625 C 4.898438 -13.410156 4.5 -13.097656 4.125 -12.703125 L 4.125 0 L 1.453125 0 Z M 1.453125 -15.59375 "></path></g></g></g><g fill="#ffffff" fill-opacity="1"><g transform="translate(124.355909, 32.079823)"><g><path d="M 5.078125 0.21875 C 3.816406 0.21875 2.796875 -0.175781 2.015625 -0.96875 C 1.234375 -1.757812 0.785156 -2.820312 0.671875 -4.15625 L 3.078125 -4.890625 C 3.222656 -3.878906 3.46875 -3.128906 3.8125 -2.640625 C 4.164062 -2.160156 4.664062 -1.921875 5.3125 -1.921875 C 5.820312 -1.921875 6.210938 -2.066406 6.484375 -2.359375 C 6.765625 -2.660156 6.90625 -3.0625 6.90625 -3.5625 C 6.90625 -4.007812 6.804688 -4.410156 6.609375 -4.765625 C 6.410156 -5.128906 6.085938 -5.5 5.640625 -5.875 L 2.96875 -8.171875 C 2.351562 -8.691406 1.878906 -9.242188 1.546875 -9.828125 C 1.210938 -10.421875 1.046875 -11.140625 1.046875 -11.984375 C 1.046875 -13.179688 1.40625 -14.117188 2.125 -14.796875 C 2.851562 -15.472656 3.835938 -15.8125 5.078125 -15.8125 C 6.265625 -15.8125 7.191406 -15.425781 7.859375 -14.65625 C 8.535156 -13.894531 8.929688 -12.914062 9.046875 -11.71875 L 7.09375 -10.984375 C 6.96875 -11.867188 6.757812 -12.539062 6.46875 -13 C 6.1875 -13.457031 5.757812 -13.6875 5.1875 -13.6875 C 4.71875 -13.6875 4.34375 -13.53125 4.0625 -13.21875 C 3.78125 -12.914062 3.640625 -12.539062 3.640625 -12.09375 C 3.640625 -11.507812 3.898438 -10.988281 4.421875 -10.53125 L 7.171875 -7.984375 C 7.878906 -7.335938 8.425781 -6.695312 8.8125 -6.0625 C 9.195312 -5.4375 9.390625 -4.675781 9.390625 -3.78125 C 9.390625 -2.476562 9 -1.484375 8.21875 -0.796875 C 7.445312 -0.117188 6.398438 0.21875 5.078125 0.21875 Z M 5.078125 0.21875 "></path></g></g></g></g></g></svg>