<svg xmlns="http://www.w3.org/2000/svg" width="512" height="512" viewBox="0 0 512 512" fill="none">
  <rect width="512" height="512" rx="88" fill="#111217"/>
  <g transform="translate(148 58) scale(1.28)">
    <path fill="#fdfdfd" d="M6.625 0 6.187-160.625 83.516-102.078 160.844-160.625 161.281 0Z" transform="translate(.755 162.798)"/>
    <path fill="#fdfdfd" d="M39.547-154.656h116v77.765h-26.969v1.547c7.363 1.625 13.328 4.609 17.469 8.953 4.57 4.344 7.781 9.355 9.625 15.031 1.844 5.668 2.395 11.524 1.75 17.563-.742 6.031-2.656 11.625-5.75 16.781-3.094 5.157-7.293 9.321-12.699 12.485-5.305 3.167-11.711 4.75-19.219 4.75H5.078v-77.11h31.156v-1.546c-10.75-2.063-19.293-6.368-25.625-12.922C4.273-97.91 1.109-106.195 1.109-116.218c0-6.625 1.727-12.88 5.188-18.766 3.457-5.895 8.094-10.645 13.906-14.25 5.82-3.613 12.27-5.422 19.344-5.422Z" transform="translate(4.85 344.006)"/>
  </g>
</svg>
